# xmcd
#
# Track frame offsets:
#   150
#   16173
#   28985
#   44428
#   57314
#   75265
#   91819
#   107174
#   119670
#   136951
#   156890
#   174161
#
# Disc length: 2532 seconds
#
# Revision: 0
# Processed by: cddbd v1.5.1PL0 Copyright (c) Steve Scherf et al.
# Submitted via: Media_Universe 3.0
#
DISCID=9209e20c
DTITLE=Gretchen Wilson - All Jacked Up
DYEAR=1900
DGENRE=Country
TTITLE0=Gretchen Wilson - All Jacked Up
TTITLE1=Gretchen Wilson - California Girls
TTITLE2=Gretchen Wilson - Full Time Job
TTITLE3=Gretchen Wilson - Skoal Ring
TTITLE4=Gretchen Wilson - He Aint Even Cold Yet
TTITLE5=Gretchen Wilson - One Bud Wiser
TTITLE6=Gretchen Wilson - Politically Uncorrect (Feat. Merle Haggard)
TTITLE7=Gretchen Wilson - I Dont Feel Like Loving You Today
TTITLE8=Gretchen Wilson - Rebel Child
TTITLE9=Gretchen Wilson - Raining On Me
TTITLE10=Gretchen Wilson - Not Bad For A Bartender
TTITLE11=Gretchen Wilson - Good Morning Heartache
EXTD=
EXTT0=
EXTT1=
EXTT2=
EXTT3=
EXTT4=
EXTT5=
EXTT6=
EXTT7=
EXTT8=
EXTT9=
EXTT10=
EXTT11=
PLAYORDER=
